<svg width="12" height="13" viewBox="0 0 12 13" fill="none" xmlns="http://www.w3.org/2000/svg">
<path d="M0.668042 11.8845C0.647572 11.7583 0.567077 11.6499 0.452184 11.5938L0.41821 11.5772C0.221095 11.481 -0.0203596 11.5879 0.00793136 11.8054V11.8054C0.0259312 11.9438 0.0740339 12.0737 0.147169 12.1813C0.220303 12.289 0.315761 12.3704 0.423478 12.4171C0.531196 12.4638 0.647184 12.4739 0.759215 12.4465L0.668042 11.8845ZM3.50363 10.2145C3.53888 10.4321 3.83592 10.4698 3.92445 10.268V10.268L3.91537 10.262C3.79279 10.1814 3.64221 10.1553 3.49967 10.1901V10.1901L3.50363 10.2145ZM2.01136 8.29416C1.8625 8.38434 1.87244 8.60352 2.02885 8.67985V8.67985C2.14924 8.7386 2.29373 8.67698 2.33467 8.54944L2.33596 8.54544C2.35186 8.49589 2.34998 8.44234 2.33063 8.39403L2.23611 8.158L2.01136 8.29416ZM10.1597 6.23105C10.1597 8.7593 8.34816 10.9043 6.01344 10.9043V12.4621C8.96025 12.4621 11.4296 9.72511 11.4296 6.23105H10.1597ZM1.86784 6.23105C1.86784 3.7028 3.67999 1.55776 6.01408 1.55776V0C3.06726 0 0.597302 2.73699 0.597302 6.23105H1.86784ZM6.01408 1.55776C8.34816 1.55776 10.1597 3.7028 10.1597 6.23105H11.4296C11.4296 2.73699 8.96089 0 6.01408 0V1.55776ZM6.01344 10.9043C5.24832 10.9043 4.53591 10.6707 3.92445 10.268V10.268C3.57694 11.0599 3.84555 12.0263 4.67516 12.2704C5.11175 12.3988 5.56089 12.4637 6.01344 12.4621V10.9043ZM0.759215 12.4465L2.24406 12.0842C3.09271 11.8772 3.63947 11.0524 3.49967 10.1901V10.1901L0.615735 10.8937C0.556935 10.9081 0.519051 10.9652 0.528732 11.025L0.75909 12.4465C0.759103 12.4466 0.759215 12.4466 0.759215 12.4465V12.4465ZM2.23611 8.158C1.99361 7.55919 1.86798 6.89967 1.86784 6.23105H0.597302C0.597302 6.69117 0.640697 7.1396 0.722942 7.5713C0.853609 8.25717 1.63886 8.51962 2.23611 8.158V8.158ZM1.07654 8.21486C1.07661 8.21486 1.07667 8.21493 1.07664 8.215L0.219141 10.8586C0.119212 11.1667 0.261429 11.5013 0.552581 11.6432V11.6432C0.90754 11.8161 1.33343 11.6351 1.45522 11.2595L2.18815 8.99908C2.22695 8.87942 2.17174 8.74944 2.05868 8.69428L1.07649 8.21507C1.07638 8.21502 1.07642 8.21486 1.07654 8.21486V8.21486Z" fill="black"/>
<path d="M3.81073 7.01089C4.16141 7.01089 4.44568 6.66217 4.44568 6.23201C4.44568 5.80184 4.16141 5.45312 3.81073 5.45312C3.46006 5.45312 3.17578 5.80184 3.17578 6.23201C3.17578 6.66217 3.46006 7.01089 3.81073 7.01089Z" fill="black"/>
<path d="M6.03339 7.01089C6.38406 7.01089 6.66834 6.66217 6.66834 6.23201C6.66834 5.80184 6.38406 5.45312 6.03339 5.45312C5.68272 5.45312 5.39844 5.80184 5.39844 6.23201C5.39844 6.66217 5.68272 7.01089 6.03339 7.01089Z" fill="black"/>
<path d="M8.25409 7.01089C8.60477 7.01089 8.88904 6.66217 8.88904 6.23201C8.88904 5.80184 8.60477 5.45312 8.25409 5.45312C7.90342 5.45312 7.61914 5.80184 7.61914 6.23201C7.61914 6.66217 7.90342 7.01089 8.25409 7.01089Z" fill="black"/>
</svg>
