<svg width="44" height="40" viewBox="0 0 44 40" fill="none" xmlns="http://www.w3.org/2000/svg">
<path d="M28 23.3338H26.5855L26.0842 22.8838C27.2031 21.6737 28.0209 20.2484 28.479 18.7098C28.9371 17.1712 29.0242 15.5574 28.734 13.9838C27.8925 9.35045 23.7388 5.65045 18.7256 5.08378C16.9632 4.87622 15.173 5.04673 13.4923 5.58226C11.8115 6.11779 10.2846 7.00414 9.02842 8.1735C7.77224 9.34285 6.82007 10.7642 6.24478 12.3288C5.66949 13.8934 5.48632 15.5598 5.70929 17.2004C6.31803 21.8671 10.2928 25.7338 15.2701 26.5171C16.9605 26.7872 18.6942 26.7061 20.347 26.2797C21.9999 25.8533 23.531 25.092 24.8309 24.0504L25.3143 24.5171V25.8338L32.9236 32.9171C33.6577 33.6004 34.8573 33.6004 35.5913 32.9171C36.3254 32.2338 36.3254 31.1171 35.5913 30.4338L28 23.3338ZM17.2575 23.3338C12.7993 23.3338 9.2006 19.9838 9.2006 15.8338C9.2006 11.6838 12.7993 8.33378 17.2575 8.33378C21.7156 8.33378 25.3143 11.6838 25.3143 15.8338C25.3143 19.9838 21.7156 23.3338 17.2575 23.3338Z" fill="#ffffff"/>
</svg>
