<svg width="19" height="19" viewBox="0 0 19 19" fill="none" xmlns="http://www.w3.org/2000/svg">
<g clip-path="url(#clip0_226_48)">
<path d="M17.5285 9.59195C16.8669 7.88063 15.7184 6.40067 14.2248 5.335C12.7313 4.26933 10.9582 3.66465 9.12476 3.5957C7.2913 3.66465 5.51823 4.26933 4.02469 5.335C2.53114 6.40067 1.3826 7.88063 0.721011 9.59195C0.67633 9.71554 0.67633 9.85087 0.721011 9.97445C1.3826 11.6858 2.53114 13.1657 4.02469 14.2314C5.51823 15.2971 7.2913 15.9018 9.12476 15.9707C10.9582 15.9018 12.7313 15.2971 14.2248 14.2314C15.7184 13.1657 16.8669 11.6858 17.5285 9.97445C17.5732 9.85087 17.5732 9.71554 17.5285 9.59195ZM9.12476 14.8457C6.14351 14.8457 2.99351 12.6351 1.85164 9.7832C2.99351 6.93133 6.14351 4.7207 9.12476 4.7207C12.106 4.7207 15.256 6.93133 16.3979 9.7832C15.256 12.6351 12.106 14.8457 9.12476 14.8457Z" fill="black"/>
<path d="M9.125 6.4082C8.45749 6.4082 7.80497 6.60614 7.24995 6.97699C6.69494 7.34784 6.26235 7.87495 6.00691 8.49165C5.75146 9.10835 5.68463 9.78695 5.81485 10.4416C5.94508 11.0963 6.26651 11.6977 6.73852 12.1697C7.21052 12.6417 7.81189 12.9631 8.46657 13.0934C9.12126 13.2236 9.79986 13.1567 10.4166 12.9013C11.0333 12.6459 11.5604 12.2133 11.9312 11.6583C12.3021 11.1032 12.5 10.4507 12.5 9.7832C12.5 8.8881 12.1444 8.02965 11.5115 7.39672C10.8786 6.76378 10.0201 6.4082 9.125 6.4082ZM9.125 12.0332C8.67999 12.0332 8.24498 11.9012 7.87497 11.654C7.50496 11.4068 7.21657 11.0554 7.04627 10.6442C6.87598 10.2331 6.83142 9.78071 6.91823 9.34425C7.00505 8.90779 7.21934 8.50688 7.53401 8.19221C7.84868 7.87754 8.24959 7.66325 8.68605 7.57644C9.12251 7.48962 9.5749 7.53418 9.98604 7.70447C10.3972 7.87477 10.7486 8.16316 10.9958 8.53317C11.243 8.90318 11.375 9.3382 11.375 9.7832C11.375 10.3799 11.1379 10.9522 10.716 11.3742C10.294 11.7962 9.72174 12.0332 9.125 12.0332Z" fill="black"/>
</g>
<defs>
<clipPath id="clip0_226_48">
<rect x="0.125" y="0.783203" width="18" height="18" rx="9" fill="white"/>
</clipPath>
</defs>
</svg>
